<svg xmlns="http://www.w3.org/2000/svg" xmlns:xlink="http://www.w3.org/1999/xlink" width="282" height="273" viewBox="0 0 282 273">
  <defs>
    <clipPath id="clip-path">
      <rect width="282" height="273" fill="none"/>
    </clipPath>
  </defs>
  <g id="Grupo_2" data-name="Grupo 2" transform="translate(-1187 -322)">
    <g id="Repetição_de_grade_2" data-name="Repetição de grade 2" transform="translate(1187 322)" clip-path="url(#clip-path)">
      <g transform="translate(-966 -106)">
        <circle id="Elipse_1" data-name="Elipse 1" cx="2" cy="2" r="2" transform="translate(966 106)" fill="#eb8762"/>
      </g>
      <g transform="translate(-942 -106)">
        <circle id="Elipse_1-2" data-name="Elipse 1" cx="2" cy="2" r="2" transform="translate(966 106)" fill="#eb8762"/>
      </g>
      <g transform="translate(-918 -106)">
        <circle id="Elipse_1-3" data-name="Elipse 1" cx="2" cy="2" r="2" transform="translate(966 106)" fill="#eb8762"/>
      </g>
      <g transform="translate(-894 -106)">
        <circle id="Elipse_1-4" data-name="Elipse 1" cx="2" cy="2" r="2" transform="translate(966 106)" fill="#eb8762"/>
      </g>
      <g transform="translate(-870 -106)">
        <circle id="Elipse_1-5" data-name="Elipse 1" cx="2" cy="2" r="2" transform="translate(966 106)" fill="#eb8762"/>
      </g>
      <g transform="translate(-846 -106)">
        <circle id="Elipse_1-6" data-name="Elipse 1" cx="2" cy="2" r="2" transform="translate(966 106)" fill="#eb8762"/>
      </g>
      <g transform="translate(-822 -106)">
        <circle id="Elipse_1-7" data-name="Elipse 1" cx="2" cy="2" r="2" transform="translate(966 106)" fill="#eb8762"/>
      </g>
      <g transform="translate(-798 -106)">
        <circle id="Elipse_1-8" data-name="Elipse 1" cx="2" cy="2" r="2" transform="translate(966 106)" fill="#eb8762"/>
      </g>
      <g transform="translate(-774 -106)">
        <circle id="Elipse_1-9" data-name="Elipse 1" cx="2" cy="2" r="2" transform="translate(966 106)" fill="#eb8762"/>
      </g>
      <g transform="translate(-750 -106)">
        <circle id="Elipse_1-10" data-name="Elipse 1" cx="2" cy="2" r="2" transform="translate(966 106)" fill="#eb8762"/>
      </g>
      <g transform="translate(-726 -106)">
        <circle id="Elipse_1-11" data-name="Elipse 1" cx="2" cy="2" r="2" transform="translate(966 106)" fill="#eb8762"/>
      </g>
      <g transform="translate(-702 -106)">
        <circle id="Elipse_1-12" data-name="Elipse 1" cx="2" cy="2" r="2" transform="translate(966 106)" fill="#eb8762"/>
      </g>
      <g transform="translate(-966 -82)">
        <circle id="Elipse_1-13" data-name="Elipse 1" cx="2" cy="2" r="2" transform="translate(966 106)" fill="#eb8762"/>
      </g>
      <g transform="translate(-942 -82)">
        <circle id="Elipse_1-14" data-name="Elipse 1" cx="2" cy="2" r="2" transform="translate(966 106)" fill="#eb8762"/>
      </g>
      <g transform="translate(-918 -82)">
        <circle id="Elipse_1-15" data-name="Elipse 1" cx="2" cy="2" r="2" transform="translate(966 106)" fill="#eb8762"/>
      </g>
      <g transform="translate(-894 -82)">
        <circle id="Elipse_1-16" data-name="Elipse 1" cx="2" cy="2" r="2" transform="translate(966 106)" fill="#eb8762"/>
      </g>
      <g transform="translate(-870 -82)">
        <circle id="Elipse_1-17" data-name="Elipse 1" cx="2" cy="2" r="2" transform="translate(966 106)" fill="#eb8762"/>
      </g>
      <g transform="translate(-846 -82)">
        <circle id="Elipse_1-18" data-name="Elipse 1" cx="2" cy="2" r="2" transform="translate(966 106)" fill="#eb8762"/>
      </g>
      <g transform="translate(-822 -82)">
        <circle id="Elipse_1-19" data-name="Elipse 1" cx="2" cy="2" r="2" transform="translate(966 106)" fill="#eb8762"/>
      </g>
      <g transform="translate(-798 -82)">
        <circle id="Elipse_1-20" data-name="Elipse 1" cx="2" cy="2" r="2" transform="translate(966 106)" fill="#eb8762"/>
      </g>
      <g transform="translate(-774 -82)">
        <circle id="Elipse_1-21" data-name="Elipse 1" cx="2" cy="2" r="2" transform="translate(966 106)" fill="#eb8762"/>
      </g>
      <g transform="translate(-750 -82)">
        <circle id="Elipse_1-22" data-name="Elipse 1" cx="2" cy="2" r="2" transform="translate(966 106)" fill="#eb8762"/>
      </g>
      <g transform="translate(-726 -82)">
        <circle id="Elipse_1-23" data-name="Elipse 1" cx="2" cy="2" r="2" transform="translate(966 106)" fill="#eb8762"/>
      </g>
      <g transform="translate(-702 -82)">
        <circle id="Elipse_1-24" data-name="Elipse 1" cx="2" cy="2" r="2" transform="translate(966 106)" fill="#eb8762"/>
      </g>
      <g transform="translate(-966 -58)">
        <circle id="Elipse_1-25" data-name="Elipse 1" cx="2" cy="2" r="2" transform="translate(966 106)" fill="#eb8762"/>
      </g>
      <g transform="translate(-942 -58)">
        <circle id="Elipse_1-26" data-name="Elipse 1" cx="2" cy="2" r="2" transform="translate(966 106)" fill="#eb8762"/>
      </g>
      <g transform="translate(-918 -58)">
        <circle id="Elipse_1-27" data-name="Elipse 1" cx="2" cy="2" r="2" transform="translate(966 106)" fill="#eb8762"/>
      </g>
      <g transform="translate(-894 -58)">
        <circle id="Elipse_1-28" data-name="Elipse 1" cx="2" cy="2" r="2" transform="translate(966 106)" fill="#eb8762"/>
      </g>
      <g transform="translate(-870 -58)">
        <circle id="Elipse_1-29" data-name="Elipse 1" cx="2" cy="2" r="2" transform="translate(966 106)" fill="#eb8762"/>
      </g>
      <g transform="translate(-846 -58)">
        <circle id="Elipse_1-30" data-name="Elipse 1" cx="2" cy="2" r="2" transform="translate(966 106)" fill="#eb8762"/>
      </g>
      <g transform="translate(-822 -58)">
        <circle id="Elipse_1-31" data-name="Elipse 1" cx="2" cy="2" r="2" transform="translate(966 106)" fill="#eb8762"/>
      </g>
      <g transform="translate(-798 -58)">
        <circle id="Elipse_1-32" data-name="Elipse 1" cx="2" cy="2" r="2" transform="translate(966 106)" fill="#eb8762"/>
      </g>
      <g transform="translate(-774 -58)">
        <circle id="Elipse_1-33" data-name="Elipse 1" cx="2" cy="2" r="2" transform="translate(966 106)" fill="#eb8762"/>
      </g>
      <g transform="translate(-750 -58)">
        <circle id="Elipse_1-34" data-name="Elipse 1" cx="2" cy="2" r="2" transform="translate(966 106)" fill="#eb8762"/>
      </g>
      <g transform="translate(-726 -58)">
        <circle id="Elipse_1-35" data-name="Elipse 1" cx="2" cy="2" r="2" transform="translate(966 106)" fill="#eb8762"/>
      </g>
      <g transform="translate(-702 -58)">
        <circle id="Elipse_1-36" data-name="Elipse 1" cx="2" cy="2" r="2" transform="translate(966 106)" fill="#eb8762"/>
      </g>
      <g transform="translate(-966 -34)">
        <circle id="Elipse_1-37" data-name="Elipse 1" cx="2" cy="2" r="2" transform="translate(966 106)" fill="#eb8762"/>
      </g>
      <g transform="translate(-942 -34)">
        <circle id="Elipse_1-38" data-name="Elipse 1" cx="2" cy="2" r="2" transform="translate(966 106)" fill="#eb8762"/>
      </g>
      <g transform="translate(-918 -34)">
        <circle id="Elipse_1-39" data-name="Elipse 1" cx="2" cy="2" r="2" transform="translate(966 106)" fill="#eb8762"/>
      </g>
      <g transform="translate(-894 -34)">
        <circle id="Elipse_1-40" data-name="Elipse 1" cx="2" cy="2" r="2" transform="translate(966 106)" fill="#eb8762"/>
      </g>
      <g transform="translate(-870 -34)">
        <circle id="Elipse_1-41" data-name="Elipse 1" cx="2" cy="2" r="2" transform="translate(966 106)" fill="#eb8762"/>
      </g>
      <g transform="translate(-846 -34)">
        <circle id="Elipse_1-42" data-name="Elipse 1" cx="2" cy="2" r="2" transform="translate(966 106)" fill="#eb8762"/>
      </g>
      <g transform="translate(-822 -34)">
        <circle id="Elipse_1-43" data-name="Elipse 1" cx="2" cy="2" r="2" transform="translate(966 106)" fill="#eb8762"/>
      </g>
      <g transform="translate(-798 -34)">
        <circle id="Elipse_1-44" data-name="Elipse 1" cx="2" cy="2" r="2" transform="translate(966 106)" fill="#eb8762"/>
      </g>
      <g transform="translate(-774 -34)">
        <circle id="Elipse_1-45" data-name="Elipse 1" cx="2" cy="2" r="2" transform="translate(966 106)" fill="#eb8762"/>
      </g>
      <g transform="translate(-750 -34)">
        <circle id="Elipse_1-46" data-name="Elipse 1" cx="2" cy="2" r="2" transform="translate(966 106)" fill="#eb8762"/>
      </g>
      <g transform="translate(-726 -34)">
        <circle id="Elipse_1-47" data-name="Elipse 1" cx="2" cy="2" r="2" transform="translate(966 106)" fill="#eb8762"/>
      </g>
      <g transform="translate(-702 -34)">
        <circle id="Elipse_1-48" data-name="Elipse 1" cx="2" cy="2" r="2" transform="translate(966 106)" fill="#eb8762"/>
      </g>
      <g transform="translate(-966 -10)">
        <circle id="Elipse_1-49" data-name="Elipse 1" cx="2" cy="2" r="2" transform="translate(966 106)" fill="#eb8762"/>
      </g>
      <g transform="translate(-942 -10)">
        <circle id="Elipse_1-50" data-name="Elipse 1" cx="2" cy="2" r="2" transform="translate(966 106)" fill="#eb8762"/>
      </g>
      <g transform="translate(-918 -10)">
        <circle id="Elipse_1-51" data-name="Elipse 1" cx="2" cy="2" r="2" transform="translate(966 106)" fill="#eb8762"/>
      </g>
      <g transform="translate(-894 -10)">
        <circle id="Elipse_1-52" data-name="Elipse 1" cx="2" cy="2" r="2" transform="translate(966 106)" fill="#eb8762"/>
      </g>
      <g transform="translate(-870 -10)">
        <circle id="Elipse_1-53" data-name="Elipse 1" cx="2" cy="2" r="2" transform="translate(966 106)" fill="#eb8762"/>
      </g>
      <g transform="translate(-846 -10)">
        <circle id="Elipse_1-54" data-name="Elipse 1" cx="2" cy="2" r="2" transform="translate(966 106)" fill="#eb8762"/>
      </g>
      <g transform="translate(-822 -10)">
        <circle id="Elipse_1-55" data-name="Elipse 1" cx="2" cy="2" r="2" transform="translate(966 106)" fill="#eb8762"/>
      </g>
      <g transform="translate(-798 -10)">
        <circle id="Elipse_1-56" data-name="Elipse 1" cx="2" cy="2" r="2" transform="translate(966 106)" fill="#eb8762"/>
      </g>
      <g transform="translate(-774 -10)">
        <circle id="Elipse_1-57" data-name="Elipse 1" cx="2" cy="2" r="2" transform="translate(966 106)" fill="#eb8762"/>
      </g>
      <g transform="translate(-750 -10)">
        <circle id="Elipse_1-58" data-name="Elipse 1" cx="2" cy="2" r="2" transform="translate(966 106)" fill="#eb8762"/>
      </g>
      <g transform="translate(-726 -10)">
        <circle id="Elipse_1-59" data-name="Elipse 1" cx="2" cy="2" r="2" transform="translate(966 106)" fill="#eb8762"/>
      </g>
      <g transform="translate(-702 -10)">
        <circle id="Elipse_1-60" data-name="Elipse 1" cx="2" cy="2" r="2" transform="translate(966 106)" fill="#eb8762"/>
      </g>
      <g transform="translate(-966 14)">
        <circle id="Elipse_1-61" data-name="Elipse 1" cx="2" cy="2" r="2" transform="translate(966 106)" fill="#eb8762"/>
      </g>
      <g transform="translate(-942 14)">
        <circle id="Elipse_1-62" data-name="Elipse 1" cx="2" cy="2" r="2" transform="translate(966 106)" fill="#eb8762"/>
      </g>
      <g transform="translate(-918 14)">
        <circle id="Elipse_1-63" data-name="Elipse 1" cx="2" cy="2" r="2" transform="translate(966 106)" fill="#eb8762"/>
      </g>
      <g transform="translate(-894 14)">
        <circle id="Elipse_1-64" data-name="Elipse 1" cx="2" cy="2" r="2" transform="translate(966 106)" fill="#eb8762"/>
      </g>
      <g transform="translate(-870 14)">
        <circle id="Elipse_1-65" data-name="Elipse 1" cx="2" cy="2" r="2" transform="translate(966 106)" fill="#eb8762"/>
      </g>
      <g transform="translate(-846 14)">
        <circle id="Elipse_1-66" data-name="Elipse 1" cx="2" cy="2" r="2" transform="translate(966 106)" fill="#eb8762"/>
      </g>
      <g transform="translate(-822 14)">
        <circle id="Elipse_1-67" data-name="Elipse 1" cx="2" cy="2" r="2" transform="translate(966 106)" fill="#eb8762"/>
      </g>
      <g transform="translate(-798 14)">
        <circle id="Elipse_1-68" data-name="Elipse 1" cx="2" cy="2" r="2" transform="translate(966 106)" fill="#eb8762"/>
      </g>
      <g transform="translate(-774 14)">
        <circle id="Elipse_1-69" data-name="Elipse 1" cx="2" cy="2" r="2" transform="translate(966 106)" fill="#eb8762"/>
      </g>
      <g transform="translate(-750 14)">
        <circle id="Elipse_1-70" data-name="Elipse 1" cx="2" cy="2" r="2" transform="translate(966 106)" fill="#eb8762"/>
      </g>
      <g transform="translate(-726 14)">
        <circle id="Elipse_1-71" data-name="Elipse 1" cx="2" cy="2" r="2" transform="translate(966 106)" fill="#eb8762"/>
      </g>
      <g transform="translate(-702 14)">
        <circle id="Elipse_1-72" data-name="Elipse 1" cx="2" cy="2" r="2" transform="translate(966 106)" fill="#eb8762"/>
      </g>
      <g transform="translate(-966 38)">
        <circle id="Elipse_1-73" data-name="Elipse 1" cx="2" cy="2" r="2" transform="translate(966 106)" fill="#eb8762"/>
      </g>
      <g transform="translate(-942 38)">
        <circle id="Elipse_1-74" data-name="Elipse 1" cx="2" cy="2" r="2" transform="translate(966 106)" fill="#eb8762"/>
      </g>
      <g transform="translate(-918 38)">
        <circle id="Elipse_1-75" data-name="Elipse 1" cx="2" cy="2" r="2" transform="translate(966 106)" fill="#eb8762"/>
      </g>
      <g transform="translate(-894 38)">
        <circle id="Elipse_1-76" data-name="Elipse 1" cx="2" cy="2" r="2" transform="translate(966 106)" fill="#eb8762"/>
      </g>
      <g transform="translate(-870 38)">
        <circle id="Elipse_1-77" data-name="Elipse 1" cx="2" cy="2" r="2" transform="translate(966 106)" fill="#eb8762"/>
      </g>
      <g transform="translate(-846 38)">
        <circle id="Elipse_1-78" data-name="Elipse 1" cx="2" cy="2" r="2" transform="translate(966 106)" fill="#eb8762"/>
      </g>
      <g transform="translate(-822 38)">
        <circle id="Elipse_1-79" data-name="Elipse 1" cx="2" cy="2" r="2" transform="translate(966 106)" fill="#eb8762"/>
      </g>
      <g transform="translate(-798 38)">
        <circle id="Elipse_1-80" data-name="Elipse 1" cx="2" cy="2" r="2" transform="translate(966 106)" fill="#eb8762"/>
      </g>
      <g transform="translate(-774 38)">
        <circle id="Elipse_1-81" data-name="Elipse 1" cx="2" cy="2" r="2" transform="translate(966 106)" fill="#eb8762"/>
      </g>
      <g transform="translate(-750 38)">
        <circle id="Elipse_1-82" data-name="Elipse 1" cx="2" cy="2" r="2" transform="translate(966 106)" fill="#eb8762"/>
      </g>
      <g transform="translate(-726 38)">
        <circle id="Elipse_1-83" data-name="Elipse 1" cx="2" cy="2" r="2" transform="translate(966 106)" fill="#eb8762"/>
      </g>
      <g transform="translate(-702 38)">
        <circle id="Elipse_1-84" data-name="Elipse 1" cx="2" cy="2" r="2" transform="translate(966 106)" fill="#eb8762"/>
      </g>
      <g transform="translate(-966 62)">
        <circle id="Elipse_1-85" data-name="Elipse 1" cx="2" cy="2" r="2" transform="translate(966 106)" fill="#eb8762"/>
      </g>
      <g transform="translate(-942 62)">
        <circle id="Elipse_1-86" data-name="Elipse 1" cx="2" cy="2" r="2" transform="translate(966 106)" fill="#eb8762"/>
      </g>
      <g transform="translate(-918 62)">
        <circle id="Elipse_1-87" data-name="Elipse 1" cx="2" cy="2" r="2" transform="translate(966 106)" fill="#eb8762"/>
      </g>
      <g transform="translate(-894 62)">
        <circle id="Elipse_1-88" data-name="Elipse 1" cx="2" cy="2" r="2" transform="translate(966 106)" fill="#eb8762"/>
      </g>
      <g transform="translate(-870 62)">
        <circle id="Elipse_1-89" data-name="Elipse 1" cx="2" cy="2" r="2" transform="translate(966 106)" fill="#eb8762"/>
      </g>
      <g transform="translate(-846 62)">
        <circle id="Elipse_1-90" data-name="Elipse 1" cx="2" cy="2" r="2" transform="translate(966 106)" fill="#eb8762"/>
      </g>
      <g transform="translate(-822 62)">
        <circle id="Elipse_1-91" data-name="Elipse 1" cx="2" cy="2" r="2" transform="translate(966 106)" fill="#eb8762"/>
      </g>
      <g transform="translate(-798 62)">
        <circle id="Elipse_1-92" data-name="Elipse 1" cx="2" cy="2" r="2" transform="translate(966 106)" fill="#eb8762"/>
      </g>
      <g transform="translate(-774 62)">
        <circle id="Elipse_1-93" data-name="Elipse 1" cx="2" cy="2" r="2" transform="translate(966 106)" fill="#eb8762"/>
      </g>
      <g transform="translate(-750 62)">
        <circle id="Elipse_1-94" data-name="Elipse 1" cx="2" cy="2" r="2" transform="translate(966 106)" fill="#eb8762"/>
      </g>
      <g transform="translate(-726 62)">
        <circle id="Elipse_1-95" data-name="Elipse 1" cx="2" cy="2" r="2" transform="translate(966 106)" fill="#eb8762"/>
      </g>
      <g transform="translate(-702 62)">
        <circle id="Elipse_1-96" data-name="Elipse 1" cx="2" cy="2" r="2" transform="translate(966 106)" fill="#eb8762"/>
      </g>
      <g transform="translate(-966 86)">
        <circle id="Elipse_1-97" data-name="Elipse 1" cx="2" cy="2" r="2" transform="translate(966 106)" fill="#eb8762"/>
      </g>
      <g transform="translate(-942 86)">
        <circle id="Elipse_1-98" data-name="Elipse 1" cx="2" cy="2" r="2" transform="translate(966 106)" fill="#eb8762"/>
      </g>
      <g transform="translate(-918 86)">
        <circle id="Elipse_1-99" data-name="Elipse 1" cx="2" cy="2" r="2" transform="translate(966 106)" fill="#eb8762"/>
      </g>
      <g transform="translate(-894 86)">
        <circle id="Elipse_1-100" data-name="Elipse 1" cx="2" cy="2" r="2" transform="translate(966 106)" fill="#eb8762"/>
      </g>
      <g transform="translate(-870 86)">
        <circle id="Elipse_1-101" data-name="Elipse 1" cx="2" cy="2" r="2" transform="translate(966 106)" fill="#eb8762"/>
      </g>
      <g transform="translate(-846 86)">
        <circle id="Elipse_1-102" data-name="Elipse 1" cx="2" cy="2" r="2" transform="translate(966 106)" fill="#eb8762"/>
      </g>
      <g transform="translate(-822 86)">
        <circle id="Elipse_1-103" data-name="Elipse 1" cx="2" cy="2" r="2" transform="translate(966 106)" fill="#eb8762"/>
      </g>
      <g transform="translate(-798 86)">
        <circle id="Elipse_1-104" data-name="Elipse 1" cx="2" cy="2" r="2" transform="translate(966 106)" fill="#eb8762"/>
      </g>
      <g transform="translate(-774 86)">
        <circle id="Elipse_1-105" data-name="Elipse 1" cx="2" cy="2" r="2" transform="translate(966 106)" fill="#eb8762"/>
      </g>
      <g transform="translate(-750 86)">
        <circle id="Elipse_1-106" data-name="Elipse 1" cx="2" cy="2" r="2" transform="translate(966 106)" fill="#eb8762"/>
      </g>
      <g transform="translate(-726 86)">
        <circle id="Elipse_1-107" data-name="Elipse 1" cx="2" cy="2" r="2" transform="translate(966 106)" fill="#eb8762"/>
      </g>
      <g transform="translate(-702 86)">
        <circle id="Elipse_1-108" data-name="Elipse 1" cx="2" cy="2" r="2" transform="translate(966 106)" fill="#eb8762"/>
      </g>
      <g transform="translate(-966 110)">
        <circle id="Elipse_1-109" data-name="Elipse 1" cx="2" cy="2" r="2" transform="translate(966 106)" fill="#eb8762"/>
      </g>
      <g transform="translate(-942 110)">
        <circle id="Elipse_1-110" data-name="Elipse 1" cx="2" cy="2" r="2" transform="translate(966 106)" fill="#eb8762"/>
      </g>
      <g transform="translate(-918 110)">
        <circle id="Elipse_1-111" data-name="Elipse 1" cx="2" cy="2" r="2" transform="translate(966 106)" fill="#eb8762"/>
      </g>
      <g transform="translate(-894 110)">
        <circle id="Elipse_1-112" data-name="Elipse 1" cx="2" cy="2" r="2" transform="translate(966 106)" fill="#eb8762"/>
      </g>
      <g transform="translate(-870 110)">
        <circle id="Elipse_1-113" data-name="Elipse 1" cx="2" cy="2" r="2" transform="translate(966 106)" fill="#eb8762"/>
      </g>
      <g transform="translate(-846 110)">
        <circle id="Elipse_1-114" data-name="Elipse 1" cx="2" cy="2" r="2" transform="translate(966 106)" fill="#eb8762"/>
      </g>
      <g transform="translate(-822 110)">
        <circle id="Elipse_1-115" data-name="Elipse 1" cx="2" cy="2" r="2" transform="translate(966 106)" fill="#eb8762"/>
      </g>
      <g transform="translate(-798 110)">
        <circle id="Elipse_1-116" data-name="Elipse 1" cx="2" cy="2" r="2" transform="translate(966 106)" fill="#eb8762"/>
      </g>
      <g transform="translate(-774 110)">
        <circle id="Elipse_1-117" data-name="Elipse 1" cx="2" cy="2" r="2" transform="translate(966 106)" fill="#eb8762"/>
      </g>
      <g transform="translate(-750 110)">
        <circle id="Elipse_1-118" data-name="Elipse 1" cx="2" cy="2" r="2" transform="translate(966 106)" fill="#eb8762"/>
      </g>
      <g transform="translate(-726 110)">
        <circle id="Elipse_1-119" data-name="Elipse 1" cx="2" cy="2" r="2" transform="translate(966 106)" fill="#eb8762"/>
      </g>
      <g transform="translate(-702 110)">
        <circle id="Elipse_1-120" data-name="Elipse 1" cx="2" cy="2" r="2" transform="translate(966 106)" fill="#eb8762"/>
      </g>
      <g transform="translate(-966 134)">
        <circle id="Elipse_1-121" data-name="Elipse 1" cx="2" cy="2" r="2" transform="translate(966 106)" fill="#eb8762"/>
      </g>
      <g transform="translate(-942 134)">
        <circle id="Elipse_1-122" data-name="Elipse 1" cx="2" cy="2" r="2" transform="translate(966 106)" fill="#eb8762"/>
      </g>
      <g transform="translate(-918 134)">
        <circle id="Elipse_1-123" data-name="Elipse 1" cx="2" cy="2" r="2" transform="translate(966 106)" fill="#eb8762"/>
      </g>
      <g transform="translate(-894 134)">
        <circle id="Elipse_1-124" data-name="Elipse 1" cx="2" cy="2" r="2" transform="translate(966 106)" fill="#eb8762"/>
      </g>
      <g transform="translate(-870 134)">
        <circle id="Elipse_1-125" data-name="Elipse 1" cx="2" cy="2" r="2" transform="translate(966 106)" fill="#eb8762"/>
      </g>
      <g transform="translate(-846 134)">
        <circle id="Elipse_1-126" data-name="Elipse 1" cx="2" cy="2" r="2" transform="translate(966 106)" fill="#eb8762"/>
      </g>
      <g transform="translate(-822 134)">
        <circle id="Elipse_1-127" data-name="Elipse 1" cx="2" cy="2" r="2" transform="translate(966 106)" fill="#eb8762"/>
      </g>
      <g transform="translate(-798 134)">
        <circle id="Elipse_1-128" data-name="Elipse 1" cx="2" cy="2" r="2" transform="translate(966 106)" fill="#eb8762"/>
      </g>
      <g transform="translate(-774 134)">
        <circle id="Elipse_1-129" data-name="Elipse 1" cx="2" cy="2" r="2" transform="translate(966 106)" fill="#eb8762"/>
      </g>
      <g transform="translate(-750 134)">
        <circle id="Elipse_1-130" data-name="Elipse 1" cx="2" cy="2" r="2" transform="translate(966 106)" fill="#eb8762"/>
      </g>
      <g transform="translate(-726 134)">
        <circle id="Elipse_1-131" data-name="Elipse 1" cx="2" cy="2" r="2" transform="translate(966 106)" fill="#eb8762"/>
      </g>
      <g transform="translate(-702 134)">
        <circle id="Elipse_1-132" data-name="Elipse 1" cx="2" cy="2" r="2" transform="translate(966 106)" fill="#eb8762"/>
      </g>
      <g transform="translate(-966 158)">
        <circle id="Elipse_1-133" data-name="Elipse 1" cx="2" cy="2" r="2" transform="translate(966 106)" fill="#eb8762"/>
      </g>
      <g transform="translate(-942 158)">
        <circle id="Elipse_1-134" data-name="Elipse 1" cx="2" cy="2" r="2" transform="translate(966 106)" fill="#eb8762"/>
      </g>
      <g transform="translate(-918 158)">
        <circle id="Elipse_1-135" data-name="Elipse 1" cx="2" cy="2" r="2" transform="translate(966 106)" fill="#eb8762"/>
      </g>
      <g transform="translate(-894 158)">
        <circle id="Elipse_1-136" data-name="Elipse 1" cx="2" cy="2" r="2" transform="translate(966 106)" fill="#eb8762"/>
      </g>
      <g transform="translate(-870 158)">
        <circle id="Elipse_1-137" data-name="Elipse 1" cx="2" cy="2" r="2" transform="translate(966 106)" fill="#eb8762"/>
      </g>
      <g transform="translate(-846 158)">
        <circle id="Elipse_1-138" data-name="Elipse 1" cx="2" cy="2" r="2" transform="translate(966 106)" fill="#eb8762"/>
      </g>
      <g transform="translate(-822 158)">
        <circle id="Elipse_1-139" data-name="Elipse 1" cx="2" cy="2" r="2" transform="translate(966 106)" fill="#eb8762"/>
      </g>
      <g transform="translate(-798 158)">
        <circle id="Elipse_1-140" data-name="Elipse 1" cx="2" cy="2" r="2" transform="translate(966 106)" fill="#eb8762"/>
      </g>
      <g transform="translate(-774 158)">
        <circle id="Elipse_1-141" data-name="Elipse 1" cx="2" cy="2" r="2" transform="translate(966 106)" fill="#eb8762"/>
      </g>
      <g transform="translate(-750 158)">
        <circle id="Elipse_1-142" data-name="Elipse 1" cx="2" cy="2" r="2" transform="translate(966 106)" fill="#eb8762"/>
      </g>
      <g transform="translate(-726 158)">
        <circle id="Elipse_1-143" data-name="Elipse 1" cx="2" cy="2" r="2" transform="translate(966 106)" fill="#eb8762"/>
      </g>
      <g transform="translate(-702 158)">
        <circle id="Elipse_1-144" data-name="Elipse 1" cx="2" cy="2" r="2" transform="translate(966 106)" fill="#eb8762"/>
      </g>
    </g>
  </g>
</svg>
